<mxfile host="65bd71144e">
    <diagram id="g16IxBxQq9FKNaR5W13e" name="Page-1">
        <mxGraphModel dx="734" dy="356" grid="1" gridSize="10" guides="1" tooltips="1" connect="1" arrows="1" fold="1" page="1" pageScale="1" pageWidth="850" pageHeight="1100" math="0" shadow="0">
            <root>
                <mxCell id="0"/>
                <mxCell id="1" parent="0"/>
                <mxCell id="3" value="Input" style="shape=step;perimeter=stepPerimeter;whiteSpace=wrap;html=1;fixedSize=1;size=10;fillColor=#4A5768;strokeColor=none;fontSize=16;fontColor=#ffffff;fontStyle=1;rounded=0;" vertex="1" parent="1">
                    <mxGeometry x="30" y="10" width="60" height="40" as="geometry"/>
                </mxCell>
                <mxCell id="4" value="" style="whiteSpace=wrap;html=1;fixedSize=1;size=10;fillColor=#B1DDF0;strokeColor=none;" vertex="1" parent="1">
                    <mxGeometry x="100" y="20" width="300" height="20" as="geometry"/>
                </mxCell>
                <mxCell id="18" style="edgeStyle=orthogonalEdgeStyle;rounded=0;orthogonalLoop=1;jettySize=auto;html=1;exitX=1;exitY=0.5;exitDx=0;exitDy=0;" edge="1" parent="1" source="5">
                    <mxGeometry relative="1" as="geometry">
                        <mxPoint x="580" y="60" as="targetPoint"/>
                    </mxGeometry>
                </mxCell>
                <mxCell id="5" value="Aluminum" style="whiteSpace=wrap;html=1;fixedSize=1;size=10;fillColor=#10739E;strokeColor=none;shadow=0;" vertex="1" parent="1">
                    <mxGeometry x="100" y="20" width="300" height="20" as="geometry"/>
                </mxCell>
                <mxCell id="6" value="50%" style="shape=step;perimeter=stepPerimeter;whiteSpace=wrap;html=1;fixedSize=1;size=10;fillColor=#4A5768;strokeColor=none;fontSize=16;fontColor=#ffffff;fontStyle=1;rounded=0;" vertex="1" parent="1">
                    <mxGeometry x="30" y="60" width="60" height="40" as="geometry"/>
                </mxCell>
                <mxCell id="7" value="" style="whiteSpace=wrap;html=1;fixedSize=1;size=10;fillColor=#FCE7CD;strokeColor=none;" vertex="1" parent="1">
                    <mxGeometry x="100" y="70" width="300" height="20" as="geometry"/>
                </mxCell>
                <mxCell id="8" value="Laterite" style="whiteSpace=wrap;html=1;fixedSize=1;size=10;fillColor=#f0a30a;strokeColor=#BD7000;shadow=0;fontColor=#000000;" vertex="1" parent="1">
                    <mxGeometry x="100" y="70" width="160" height="20" as="geometry"/>
                </mxCell>
                <mxCell id="9" value="25%" style="shape=step;perimeter=stepPerimeter;whiteSpace=wrap;html=1;fixedSize=1;size=10;fillColor=#4A5768;strokeColor=none;fontSize=16;fontColor=#ffffff;fontStyle=1;rounded=0;" vertex="1" parent="1">
                    <mxGeometry x="30" y="110" width="60" height="40" as="geometry"/>
                </mxCell>
                <mxCell id="10" value="" style="whiteSpace=wrap;html=1;fixedSize=1;size=10;fillColor=#FAD9D5;strokeColor=none;" vertex="1" parent="1">
                    <mxGeometry x="100" y="120" width="300" height="20" as="geometry"/>
                </mxCell>
                <mxCell id="11" value="Bauxite" style="whiteSpace=wrap;html=1;fixedSize=1;size=10;fillColor=#fa6800;strokeColor=#C73500;shadow=0;fontColor=#000000;" vertex="1" parent="1">
                    <mxGeometry x="100" y="120" width="80" height="20" as="geometry"/>
                </mxCell>
                <mxCell id="12" value="25%" style="shape=step;perimeter=stepPerimeter;whiteSpace=wrap;html=1;fixedSize=1;size=10;fillColor=#4A5768;strokeColor=none;fontSize=16;fontColor=#ffffff;fontStyle=1;rounded=0;" vertex="1" parent="1">
                    <mxGeometry x="30" y="160" width="60" height="40" as="geometry"/>
                </mxCell>
                <mxCell id="13" value="" style="whiteSpace=wrap;html=1;fixedSize=1;size=10;fillColor=#BAC8D3;strokeColor=none;" vertex="1" parent="1">
                    <mxGeometry x="100" y="170" width="300" height="20" as="geometry"/>
                </mxCell>
                <mxCell id="14" value="Titanium" style="whiteSpace=wrap;html=1;fixedSize=1;size=10;fillColor=#76608a;strokeColor=#432D57;shadow=0;fontColor=#ffffff;" vertex="1" parent="1">
                    <mxGeometry x="100" y="170" width="80" height="20" as="geometry"/>
                </mxCell>
                <mxCell id="21" style="edgeStyle=orthogonalEdgeStyle;rounded=0;orthogonalLoop=1;jettySize=auto;html=1;exitX=0;exitY=0.5;exitDx=0;exitDy=0;exitPerimeter=0;entryX=1;entryY=0.5;entryDx=0;entryDy=0;" edge="1" parent="1" source="20" target="7">
                    <mxGeometry relative="1" as="geometry"/>
                </mxCell>
                <mxCell id="22" style="edgeStyle=orthogonalEdgeStyle;rounded=0;orthogonalLoop=1;jettySize=auto;html=1;exitX=0;exitY=0.5;exitDx=0;exitDy=0;exitPerimeter=0;entryX=1;entryY=0.5;entryDx=0;entryDy=0;" edge="1" parent="1" source="20" target="10">
                    <mxGeometry relative="1" as="geometry"/>
                </mxCell>
                <mxCell id="23" style="edgeStyle=orthogonalEdgeStyle;rounded=0;orthogonalLoop=1;jettySize=auto;html=1;exitX=0;exitY=0.5;exitDx=0;exitDy=0;exitPerimeter=0;entryX=1;entryY=0.5;entryDx=0;entryDy=0;" edge="1" parent="1" source="20" target="13">
                    <mxGeometry relative="1" as="geometry"/>
                </mxCell>
                <mxCell id="20" value="10 minutes unboosted" style="shape=display;whiteSpace=wrap;html=1;" vertex="1" parent="1">
                    <mxGeometry x="540" y="60" width="80" height="40" as="geometry"/>
                </mxCell>
                <mxCell id="24" value="Input" style="shape=step;perimeter=stepPerimeter;whiteSpace=wrap;html=1;fixedSize=1;size=10;fillColor=#4A5768;strokeColor=none;fontSize=16;fontColor=#ffffff;fontStyle=1;rounded=0;" vertex="1" parent="1">
                    <mxGeometry x="30" y="260" width="60" height="40" as="geometry"/>
                </mxCell>
                <mxCell id="25" value="" style="whiteSpace=wrap;html=1;fixedSize=1;size=10;fillColor=#B1DDF0;strokeColor=none;" vertex="1" parent="1">
                    <mxGeometry x="100" y="270" width="300" height="20" as="geometry"/>
                </mxCell>
                <mxCell id="26" style="edgeStyle=orthogonalEdgeStyle;rounded=0;orthogonalLoop=1;jettySize=auto;html=1;exitX=1;exitY=0.5;exitDx=0;exitDy=0;" edge="1" parent="1" source="27">
                    <mxGeometry relative="1" as="geometry">
                        <mxPoint x="580" y="310" as="targetPoint"/>
                    </mxGeometry>
                </mxCell>
                <mxCell id="27" value="Cobalt" style="whiteSpace=wrap;html=1;fixedSize=1;size=10;fillColor=#0050ef;strokeColor=#001DBC;shadow=0;fontColor=#ffffff;" vertex="1" parent="1">
                    <mxGeometry x="100" y="270" width="300" height="20" as="geometry"/>
                </mxCell>
                <mxCell id="28" value="50%" style="shape=step;perimeter=stepPerimeter;whiteSpace=wrap;html=1;fixedSize=1;size=10;fillColor=#4A5768;strokeColor=none;fontSize=16;fontColor=#ffffff;fontStyle=1;rounded=0;" vertex="1" parent="1">
                    <mxGeometry x="30" y="310" width="60" height="40" as="geometry"/>
                </mxCell>
                <mxCell id="29" value="" style="whiteSpace=wrap;html=1;fixedSize=1;size=10;fillColor=#FCE7CD;strokeColor=none;" vertex="1" parent="1">
                    <mxGeometry x="100" y="320" width="300" height="20" as="geometry"/>
                </mxCell>
                <mxCell id="30" value="Laterite" style="whiteSpace=wrap;html=1;fixedSize=1;size=10;fillColor=#f0a30a;strokeColor=#BD7000;shadow=0;fontColor=#000000;" vertex="1" parent="1">
                    <mxGeometry x="100" y="320" width="160" height="20" as="geometry"/>
                </mxCell>
                <mxCell id="31" value="25%" style="shape=step;perimeter=stepPerimeter;whiteSpace=wrap;html=1;fixedSize=1;size=10;fillColor=#4A5768;strokeColor=none;fontSize=16;fontColor=#ffffff;fontStyle=1;rounded=0;" vertex="1" parent="1">
                    <mxGeometry x="30" y="360" width="60" height="40" as="geometry"/>
                </mxCell>
                <mxCell id="32" value="" style="whiteSpace=wrap;html=1;fixedSize=1;size=10;fillColor=#FAD9D5;strokeColor=none;" vertex="1" parent="1">
                    <mxGeometry x="100" y="370" width="300" height="20" as="geometry"/>
                </mxCell>
                <mxCell id="33" value="Cobaltite" style="whiteSpace=wrap;html=1;fixedSize=1;size=10;fillColor=#1ba1e2;strokeColor=#006EAF;shadow=0;fontColor=#ffffff;" vertex="1" parent="1">
                    <mxGeometry x="100" y="370" width="80" height="20" as="geometry"/>
                </mxCell>
                <mxCell id="34" value="25%" style="shape=step;perimeter=stepPerimeter;whiteSpace=wrap;html=1;fixedSize=1;size=10;fillColor=#4A5768;strokeColor=none;fontSize=16;fontColor=#ffffff;fontStyle=1;rounded=0;" vertex="1" parent="1">
                    <mxGeometry x="30" y="410" width="60" height="40" as="geometry"/>
                </mxCell>
                <mxCell id="35" value="" style="whiteSpace=wrap;html=1;fixedSize=1;size=10;fillColor=#BAC8D3;strokeColor=none;" vertex="1" parent="1">
                    <mxGeometry x="100" y="420" width="300" height="20" as="geometry"/>
                </mxCell>
                <mxCell id="36" value="Nickel" style="whiteSpace=wrap;html=1;fixedSize=1;size=10;fillColor=#a0522d;strokeColor=#6D1F00;shadow=0;fontColor=#ffffff;" vertex="1" parent="1">
                    <mxGeometry x="100" y="420" width="80" height="20" as="geometry"/>
                </mxCell>
                <mxCell id="37" style="edgeStyle=orthogonalEdgeStyle;rounded=0;orthogonalLoop=1;jettySize=auto;html=1;exitX=0;exitY=0.5;exitDx=0;exitDy=0;exitPerimeter=0;entryX=1;entryY=0.5;entryDx=0;entryDy=0;" edge="1" parent="1" source="40" target="29">
                    <mxGeometry relative="1" as="geometry"/>
                </mxCell>
                <mxCell id="38" style="edgeStyle=orthogonalEdgeStyle;rounded=0;orthogonalLoop=1;jettySize=auto;html=1;exitX=0;exitY=0.5;exitDx=0;exitDy=0;exitPerimeter=0;entryX=1;entryY=0.5;entryDx=0;entryDy=0;" edge="1" parent="1" source="40" target="32">
                    <mxGeometry relative="1" as="geometry"/>
                </mxCell>
                <mxCell id="39" style="edgeStyle=orthogonalEdgeStyle;rounded=0;orthogonalLoop=1;jettySize=auto;html=1;exitX=0;exitY=0.5;exitDx=0;exitDy=0;exitPerimeter=0;entryX=1;entryY=0.5;entryDx=0;entryDy=0;" edge="1" parent="1" source="40" target="35">
                    <mxGeometry relative="1" as="geometry"/>
                </mxCell>
                <mxCell id="40" value="10 minutes unboosted" style="shape=display;whiteSpace=wrap;html=1;" vertex="1" parent="1">
                    <mxGeometry x="540" y="310" width="80" height="40" as="geometry"/>
                </mxCell>
            </root>
        </mxGraphModel>
    </diagram>
</mxfile>